<?xml version="1.0" encoding="UTF-8"?>
<svg xmlns="http://www.w3.org/2000/svg" xmlns:xlink="http://www.w3.org/1999/xlink" width="250pt" height="250pt" viewBox="0 0 250 250" version="1.1">
<g id="surface4810">
<path style=" stroke:none;fill-rule:nonzero;fill:rgb(22.745098%,78.823529%,54.901961%);fill-opacity:1;" d="M 125 10 C 61.585938 10 10 61.585938 10 125 C 10 188.414062 61.585938 240 125 240 C 188.414062 240 240 188.414062 240 125 C 240 61.585938 188.414062 10 125 10 Z M 160 130 L 130 130 L 130 160 C 130 162.765625 127.765625 165 125 165 C 122.234375 165 120 162.765625 120 160 L 120 130 L 90 130 C 87.234375 130 85 127.765625 85 125 C 85 122.234375 87.234375 120 90 120 L 120 120 L 120 90 C 120 87.234375 122.234375 85 125 85 C 127.765625 85 130 87.234375 130 90 L 130 120 L 160 120 C 162.765625 120 165 122.234375 165 125 C 165 127.765625 162.765625 130 160 130 Z M 160 130 "/>
</g>
</svg>
