<?xml version="1.0" encoding="UTF-8"?>
<svg xmlns="http://www.w3.org/2000/svg" xmlns:xlink="http://www.w3.org/1999/xlink" width="256pt" height="256pt" viewBox="0 0 256 256" version="1.1">
<g id="surface345873">
<path style=" stroke:none;fill-rule:nonzero;fill:rgb(22.745098%,78.823529%,54.901961%);fill-opacity:1;" d="M 151.25 32.75 C 144.8125 32.75 138.125 34.9375 133 39.5 L 133 39.75 L 132.75 40 L 39.25 132.75 C 29.5625 142.4375 29.625 158.21875 38.75 168.5 L 39 168.75 L 39.25 168.75 L 87.25 216.75 C 92.09375 221.59375 98.5625 223.9375 105 224 L 224 224 L 224 208 L 132 208 L 216 124 C 226.125 113.875 226.4375 97.6875 216.75 88 L 168.75 40 C 163.90625 35.15625 157.6875 32.75 151.25 32.75 Z M 151 49 C 153.5625 49 155.9375 49.6875 157.5 51.25 L 205.5 99.25 C 208.59375 102.34375 209.03125 108.46875 204.75 112.75 L 164.5 153 L 103.25 91.75 L 143.75 51.5 L 144 51.25 C 146.03125 49.5625 148.5625 49 151 49 Z M 91.75 103.25 L 153 164.5 L 112.25 205.25 C 112.15625 205.3125 112.09375 205.4375 112 205.5 C 107.875 208.9375 101.53125 208.53125 98.5 205.5 L 50.75 158 C 50.625 157.84375 50.625 157.65625 50.5 157.5 C 47.21875 153.375 47.5 147 50.5 144 Z M 91.75 103.25 "/>
</g>
</svg>
